<svg id="Layer_1" data-name="Layer 1" xmlns="http://www.w3.org/2000/svg" viewBox="0 0 477.84 795.57"><defs><style>.cls-1{fill:none;stroke:#856d56;stroke-miterlimit:10;stroke-width:26px;}.cls-2{fill:#bf9d78;}.cls-3{fill:#fff;}.cls-4{fill:#856d56;}</style></defs><ellipse class="cls-1" cx="238.92" cy="218.98" rx="147.54" ry="170.23"/><path class="cls-2" d="M315.49,832.38l-3.13-.13v.13Z" transform="translate(-72.78 -36.81)"/><path class="cls-2" d="M245.27,123.13c8,30.26,9.74,62.26,9.74,62.26-402,86.54-13.55,562-13.55,562a10.08,10.08,0,0,0-8.34,6.26c-33.89,13.55-54.22,20.33-48,47.44,5.55,24,103.71,30,125.89,31.09v.06h1.32v-.06c22.19-1.05,120.35-7.05,125.89-31.09,6.26-27.11-14.07-33.89-48-47.44A10.1,10.1,0,0,0,382,747.4s388.4-475.47-13.56-562c0,0,5.74-103.23,42.75-114.18,0,0,42.23-18.24,42.23-34.4H170c0,16.16,42.23,34.4,42.23,34.4,16.41,4.86,26.67,27.84,33,51.92" transform="translate(-72.78 -36.81)"/><path class="cls-2" d="M311,832.38v-.13l-3.12.13Z" transform="translate(-72.78 -36.81)"/><path class="cls-3" d="M341.66,525.76c7.67,4.29,14.47,9.93,22.28,14a12.43,12.43,0,0,0,11.41.48c2.31-1,4.18-2.46,4.42-5.28.25-3-2.28-3.7-4.08-4.67-8.37-4.5-14-11.69-19.64-19,8.05,5.65,15.7,11.74,24.28,16.51,5.59,3.1,9.8,2.66,12.68-1.6,2.51-3.73,1.38-9.72-2.73-13-4.57-3.69-9.42-7-13.95-10.78a210.84,210.84,0,0,1-32.55-33.35c-2.47-3.18-4.53-3.81-8.27-2.24q-15.06,6.31-30.45,11.86c-9.8,3.54-20.43-.4-26.23-9.28-5.45-8.35-4.33-17,3.71-25.35,10.87-11.22,24.65-17.56,39.08-22.73a15.35,15.35,0,0,0,3.7-1.68c-19.84-3.71-37.29,3.51-54,12.53-17,9.16-29.36,23.25-39,40,.8-8.45,4.39-15.74,8.58-22.75a65.08,65.08,0,0,1,12.64-15c2-1.79,2.55-2.94-.4-4.43-20.54-10.38-28.35-28.89-31.17-50.16-3.47-26.17,3.31-50,18.17-71.9-2.84-1-4.34.86-6,2.2-27.51,22.46-44.7,51.07-48,86.53-4,42.21,10.6,77.72,42.52,106,2.77,2.45,4.09,2.28,6.38-.65,4.57-5.85,9.64-11.31,14.58-16.87,4.18-4.71,9.41-6.29,15.48-4.6,5.9,1.64,9.48,5.64,10.35,11.65.36,2.43,1.1,3.25,3.51,3.13,7.86-.36,12.73,3.72,15,10.93.68,2.14,1.31,2.61,3.56,2.21,8-1.41,13.75,1.62,17.1,9.1,1.06,2.36,1.94,3.18,4.55,2.26,5.54-2,10.24-.39,13.81,4.25,3,3.88,3,9.36-.57,14.45-1.5,2.16-.82,3,.91,4,2.88,1.62,5.93,3.31,9.22,3.22,4.55-.13,8.89,1.22,13.37,1.23,1.76,0,3.84-.28,4.43-2s-1.57-2.36-2.76-3.18c-6.27-4.31-12.41-8.75-16.63-15.28a3.42,3.42,0,0,1-2.45-3.13A3.21,3.21,0,0,1,341.66,525.76Z" transform="translate(-72.78 -36.81)"/><path class="cls-4" d="M330.88,284.12c13.73,10,27.06,19.87,38.83,31.66,14.92,14.93,26.83,31.64,31.14,52.83,4,19.84-.22,38.42-8.39,56.48-1.48,3.27-3.81,2.36-6,2-11.62-1.74-23.07-4.69-34.85-5.36-25.94-1.47-47.6,8.6-66.3,25.63-6.62,6-7.09,13.19-2.93,19.69,4.63,7.25,13.27,10.61,21.22,7.69q17-6.24,33.8-13.19c3.26-1.34,5-1.06,7.28,1.86a216.63,216.63,0,0,0,43.35,43c2.42,1.78,4,2.31,6.56,0,39.56-35.84,54.36-80,39.94-131.33-14.24-50.64-49.5-80.49-101.14-90.81A16.67,16.67,0,0,0,330.88,284.12Z" transform="translate(-72.78 -36.81)"/><path class="cls-4" d="M264.56,359.29c.06,12.29.25,24.58.11,36.86,0,3.28,1,4.13,4.12,4,6.57-.26,13.15-.25,19.73-.12,2.66.06,3.56-.65,3.53-3.46q-.36-37.38-.41-74.76c0-2.89-.8-3.93-3.79-3.82-6.4.24-12.82.31-19.21.1-3.36-.1-4.47.81-4.39,4.33.29,12.28.22,24.57.28,36.86Z" transform="translate(-72.78 -36.81)"/><path class="cls-4" d="M300.82,368.42c.05,9.16.25,18.32.07,27.47-.06,3.22.89,4.17,4.07,4,6.56-.26,13.14-.25,19.7-.13,2.66.05,3.57-.7,3.54-3.48q-.31-28-.31-56c0-2.72-.81-3.57-3.53-3.49-6.56.21-13.13.26-19.69.09-3.07-.07-4.19.69-4.08,4C300.89,350.1,300.77,359.27,300.82,368.42Z" transform="translate(-72.78 -36.81)"/><path class="cls-4" d="M337.07,375.64c0,6.73.18,13.46.07,20.19-.05,2.7.38,4.07,3.6,3.94,6.72-.28,13.46-.24,20.19-.12,2.71.05,3.5-.85,3.46-3.56q-.28-21-.21-41.93c0-2.77-.95-3.54-3.61-3.47-6.73.19-13.46.24-20.19.11-2.77-.05-3.54,1-3.48,3.62C337.08,361.49,337,368.56,337.07,375.64Z" transform="translate(-72.78 -36.81)"/><path class="cls-4" d="M271.78,494.12a10.2,10.2,0,0,0-6.39-9.44c-4.14-1.78-8.5-1.51-11.57,1.8-6.34,6.83-12.44,13.92-18.2,21.25-3.49,4.45-2.14,11,2.15,14.43a10.53,10.53,0,0,0,14.57-.88c6-6.49,11.54-13.31,17.27-20C271.26,499.33,271.74,497,271.78,494.12Z" transform="translate(-72.78 -36.81)"/><path class="cls-4" d="M283.8,552.65c3.87,0,6.49-.9,8.41-3.1,5.8-6.65,11.66-13.25,17.19-20.11a10.51,10.51,0,0,0-1.31-14.91c-4.46-3.82-10.86-3.8-15,.69-6.06,6.63-11.85,13.52-17.49,20.51-2.73,3.39-2.67,7.44-.64,11.25A10,10,0,0,0,283.8,552.65Z" transform="translate(-72.78 -36.81)"/><path class="cls-4" d="M290.44,510.92c-.05-5.73-2.21-9.14-6.36-10.95s-8.75-1.51-12,2c-6.18,6.76-12.17,13.7-17.86,20.87-3.35,4.22-2.26,10.56,1.7,14.11s10.37,4.22,14.13.24c6.64-7,12.73-14.55,18.94-22A7,7,0,0,0,290.44,510.92Z" transform="translate(-72.78 -36.81)"/><path class="cls-4" d="M323.38,523a8.28,8.28,0,0,0-6.72,3.28c-3.46,4.07-7,8.08-10.45,12.17-3.65,4.33-3.88,9.71-.64,12.27,4.57,3.61,8.67,3,13-1.93q5.44-6.24,10.74-12.62a7.79,7.79,0,0,0,1.09-8.73A7.24,7.24,0,0,0,323.38,523Z" transform="translate(-72.78 -36.81)"/><path class="cls-3" d="M511,323.11c-.26,1.84-.63,5.34-1.31,8.79a2.7,2.7,0,0,0,1.45,3.34c6.55,4.15,12.13,9.3,15.55,16.41,4.71,9.79,4.2,19.68.34,29.57-.8,2-2.55,4.11-2.35,6s2.42,3.33,3.66,5c11.69,16.19,10.83,33.94-2.48,49.45a3.2,3.2,0,0,0-.54,4.14c4.6,9.38,6.36,19.13,3,29.33-3,9.05-9.28,15.35-17.05,20.36a2.91,2.91,0,0,0-1.54,3.67c1.85,8.53,2,17-1.71,25.19-4.56,10.1-12.75,16.1-22.89,19.68-2.18.78-3,1.69-3.23,4.09-.9,11.3-5,21.12-14.17,28.35-6.81,5.4-14.77,7.69-23.28,8.29a2.64,2.64,0,0,0-2.78,2.12,41.85,41.85,0,0,1-9.93,16.83c-9.36,9.32-20.78,11.59-33.28,9.11-3.43-.68-5.07.06-6.95,2.91-5.44,8.25-12.75,14.22-22.69,16.31-9.1,1.92-17.69,0-25.87-4a3,3,0,0,0-4,.5c-6.39,5.54-13.62,9.46-22.18,10.45-10.87,1.25-20.4-2.13-28.61-9-2.81-2.35-4.79-2.56-8.08-1-9.57,4.51-19.52,5.4-29.54,1.27-7.86-3.24-13.49-9.08-18-16.08-1-1.57-1.89-2.07-3.79-1.64-8.4,1.89-16.76,2-24.82-1.57-9.92-4.37-16.08-12.22-19.63-22.16-1-2.92-2.36-4-5.49-4.24-10.06-.84-18.88-4.6-25.79-12.26-6.35-7-9.09-15.49-9.76-24.71a3.2,3.2,0,0,0-2.6-3.28c-7.82-2.68-14.68-6.83-19.72-13.56-6.72-9-7.89-19.13-5.74-29.76.64-3.15,0-4.72-2.68-6.49-8.32-5.44-14.41-12.73-16.56-22.74-2-9.17-.09-17.82,4-26.05.83-1.66.63-2.6-.55-4C94,435.31,90,428,89.09,419.37c-1.18-10.72,2.17-20.15,8.92-28.26,2.45-2.94,2.61-5,1-8.41-4.44-9.54-5.25-19.43-1.15-29.37,3.27-7.93,9.21-13.54,16.27-18.06a2.76,2.76,0,0,0,1.45-3.51c-1.86-8.53-2-17,1.65-25.2,4.47-10,12.48-16,22.47-19.59,2.5-.89,3.54-1.91,3.76-4.73.9-11.1,5.07-20.7,14-27.81,6.86-5.46,14.88-7.76,23.46-8.36a2.54,2.54,0,0,0,2.66-2c2.41-7.23,6-13.73,11.91-18.77,9.2-7.91,20-9.54,31.43-7.25,3.34.66,4.95,0,6.79-2.83,5.42-8.26,12.7-14.26,22.63-16.39,9-1.92,17.45-.19,25.52,3.78,2,1,3.12.88,4.82-.59,6.29-5.45,13.46-9.21,21.88-10.16,10.25-1.15,19.27,2,27.41,8,1.64,1.23,3.13,3.33,4.89,3.56s3.72-1.43,5.62-2.18c12.38-4.9,24.28-4.55,35.37,3.48A42.44,42.44,0,0,1,393,217.11a2.5,2.5,0,0,0,3.22,1.29c7.3-1.61,14.63-2,21.86.3,10.35,3.3,17.17,10.47,21.65,20.12a9.13,9.13,0,0,1,.91,2.21c.63,4.12,3.2,5,7.08,5.46,13.89,1.58,24.45,8.35,30.55,21.27a42.26,42.26,0,0,1,3.8,16,2.48,2.48,0,0,0,2,2.63,43.49,43.49,0,0,1,14.18,7.51C507,301,511.08,310.26,511,323.11ZM172.76,467a48.61,48.61,0,0,0,.05,5,4,4,0,0,0,1.06,2.52,52.93,52.93,0,0,1,18.21,31,3.61,3.61,0,0,0,2.12,2.82A56.19,56.19,0,0,1,219.92,534a3.38,3.38,0,0,0,2.67,2,53,53,0,0,1,31,18.16,3.68,3.68,0,0,0,2.66,1.13,54,54,0,0,1,35.16,9.22,3.58,3.58,0,0,0,2.72.36,58.19,58.19,0,0,1,37.2,0,3.36,3.36,0,0,0,2.54-.34A53.93,53.93,0,0,1,369,555.31a3.66,3.66,0,0,0,2.69-1.08,53.12,53.12,0,0,1,31-18.19,3.61,3.61,0,0,0,2.8-2.15,55.58,55.58,0,0,1,25.08-25.29,4.93,4.93,0,0,0,2.86-3.87,51.21,51.21,0,0,1,17.31-29.5,4.5,4.5,0,0,0,1.84-4.22,51.83,51.83,0,0,1,9-34,3.41,3.41,0,0,0,.5-3.31,56,56,0,0,1,0-36.58,3.69,3.69,0,0,0-.5-3.32c-1.88-3.35-3.83-6.69-5.42-10.18-3.51-7.69-4-15.88-3.68-24.2a4.1,4.1,0,0,0-1-2.94,53.25,53.25,0,0,1-18.36-31.34,3.22,3.22,0,0,0-2-2.49,56,56,0,0,1-25.56-25.36,4.35,4.35,0,0,0-3.41-2.58,52.89,52.89,0,0,1-30.61-18.09,4,4,0,0,0-2.89-1.07A53.73,53.73,0,0,1,334,266.4a3.79,3.79,0,0,0-2.89-.38,58.16,58.16,0,0,1-37,0,4,4,0,0,0-2.73.36c-3.25,1.65-6.35,3.62-9.64,5.17-8,3.76-16.44,4.52-25.11,4a3.1,3.1,0,0,0-3,1,52.35,52.35,0,0,1-31.09,18.36,3.4,3.4,0,0,0-2.66,2,55.56,55.56,0,0,1-25,25.34,5.18,5.18,0,0,0-3,4,51,51,0,0,1-17.21,29.33,4.68,4.68,0,0,0-1.9,4.4,51.56,51.56,0,0,1-9,33.78,3.84,3.84,0,0,0-.44,3.7,55.27,55.27,0,0,1,.21,35.24,5.38,5.38,0,0,0,.66,5.14C169.92,446.68,173.24,456.29,172.76,467Zm-69.71-27.09c1.79-2.6,3.41-5.09,5.18-7.47a2,2,0,0,0,0-2.76,24.57,24.57,0,0,1-4.85-11.42c-1-7.46,1.93-13.64,6.5-19.2,6.1-7.42,13.85-12.91,21.71-18.25l3.85-2.59-4.89-9.49c-4.86,3.41-9.49,6.51-14,9.81a75.35,75.35,0,0,0-17.1,16.81C88.71,410.56,91.38,427.13,103.05,439.87Zm391.51,21.92c.37-.05.52,0,.62-.08.86-.51,1.72-1,2.55-1.56,9.62-6.43,19-13.11,26.39-22.24,11.67-14.51,11.4-31.69-.74-45.83a13.73,13.73,0,0,0-1.1-1c-1.72,2.52-3.24,4.94-5,7.2-.95,1.23-.86,2,0,3.27,5.17,7.32,6.72,15.22,2.52,23.44a46.7,46.7,0,0,1-7,9.81c-5.78,6.4-12.91,11.22-20,16-.92.62-1.82,1.26-2.82,2C491.55,455.88,493.08,458.87,494.56,461.79ZM181.75,581c-.57-3-1.19-5.79-1.57-8.59a2.41,2.41,0,0,0-2.39-2.46c-10.76-1.85-17.36-8.31-19.55-19a51.52,51.52,0,0,1-.38-16.85c.75-6,1.89-11.91,2.8-17.88.09-.64-.11-1.81-.48-2-3-1.11-6-2-8.94-3a4.66,4.66,0,0,0-.39.8c-.21.91-.42,1.81-.6,2.73-2.23,11.27-4.28,22.58-2.94,34.16,1.44,12.51,6.83,22.5,18.58,28.23A40.19,40.19,0,0,0,181.75,581ZM266,597.48c2.37,3.49,4.51,6.75,6.76,9.93,5.06,7.1,10.46,13.91,17.35,19.37,9.51,7.52,20,10.83,32,7.19a40.58,40.58,0,0,0,15.07-8.84c-2.56-1.75-5-3.27-7.21-5a2.41,2.41,0,0,0-3.43-.07c-5.07,3.67-10.68,5.59-17,4.61-5.08-.78-9.36-3.25-13.26-6.45-6.54-5.37-11.56-12.05-16.36-18.92-1.51-2.16-3-4.35-4.52-6.62ZM359.37,233.4c-2.39-3.53-4.56-6.85-6.86-10.08-5-7-10.39-13.8-17.23-19.2-11.09-8.76-23.14-11.51-36.46-5.5a39.54,39.54,0,0,0-10.6,7.14c2.65,1.83,5.14,3.46,7.52,5.23a2,2,0,0,0,2.76,0,24.61,24.61,0,0,1,11.23-4.82c7.47-1.06,13.66,1.82,19.25,6.37,7.46,6.07,12.94,13.83,18.3,21.68l2.7,4Zm115,86.31c.44-2.06.84-3.8,1.17-5.55,2-10.71,3.84-21.45,2.53-32.41-1.25-10.45-5.24-19.44-14.26-25.57-6-4.1-12.78-5.88-20.15-6.31.57,3.08,1.21,5.92,1.6,8.79a2.13,2.13,0,0,0,2.14,2.21c10.77,1.76,17.32,8,19.65,18.67A51.61,51.61,0,0,1,467.5,297c-.73,5.92-1.86,11.79-2.8,17.68-.13.79-.67,1.7.64,2.12C468.24,317.69,471.12,318.65,474.36,319.71Zm3.87,226.68c-3,.57-5.78,1.21-8.58,1.57-1.61.2-2.16.81-2.44,2.41-1.86,10.72-8,17.25-18.69,19.35a45.39,45.39,0,0,1-12.46.8c-7.59-.67-15.11-2-22.67-3-.63-.08-1.77.18-1.91.56-1.1,2.9-2,5.87-3.08,9.12,3.57.69,6.86,1.38,10.17,2,10,1.76,20.11,3.06,30.3,1.33,12.57-2.13,21.83-8.64,26.65-20.73A38.22,38.22,0,0,0,478.23,546.39Zm-331-261.91c2.95-.55,5.72-1.17,8.53-1.55a2.4,2.4,0,0,0,2.46-2.39c1.84-10.76,8.11-17.21,18.81-19.49a52,52,0,0,1,17.24-.43c5.92.74,11.79,1.88,17.69,2.78.64.09,1.83-.1,2-.46,1.12-2.95,2-6,3.08-9.13-1.42-.32-2.5-.58-3.6-.8-11.34-2.26-22.71-4.25-34.36-2.95C158.26,252.37,148,266.83,147.18,284.48Zm162.66-57c-3.11-2.68-6-5.23-8.94-7.68-7.14-5.88-14.52-11.4-23.17-14.95-16.46-6.75-31.73-2.3-42.11,14.25a2.87,2.87,0,0,0-.21.76c2.58.93,5.13,1.7,7.54,2.78,1.67.75,2.57.62,3.75-1,4.87-6.58,11.24-10.24,19.71-9.08a37.49,37.49,0,0,1,13.86,5.27c7.31,4.29,13.73,9.76,20.09,15.3.53.46,1.09.89,1.71,1.4Zm190.73,185c7.43-8.38,14.55-16.59,19.84-26.2,3.76-6.85,6.34-14.07,5.76-22-.87-12-7.75-20.09-17.58-26.13-.08,0-.24.05-.39.09-.94,2.54-1.77,5.13-2.86,7.62-.68,1.55-.42,2.37,1,3.42,9.36,7.12,11.67,15.78,7.33,26.76-3,7.64-7.93,14.07-13.06,20.36-2.25,2.77-4.61,5.46-7,8.32ZM117.12,492.81c.93-2.58,1.64-5.08,2.74-7.39.92-1.93.56-2.92-1.15-4.21-7.64-5.75-10.76-13.29-8.12-22.74a42.39,42.39,0,0,1,3-7.58c3.86-7.72,9.35-14.31,14.92-20.82,1.11-1.3,2.23-2.59,3.42-4l-7-7.67a10.94,10.94,0,0,0-1,.89c-4.15,5-8.42,9.92-12.38,15.08-4.83,6.29-8.86,13.08-11.05,20.8C96.35,469.75,101.6,483.77,117.12,492.81ZM396.29,222.42c1.23,2.67,2.49,5.14,3.51,7.72.59,1.47,1.22,1.93,2.91,1.69,7.55-1.1,14.52.13,19.68,6.33a33,33,0,0,1,4.54,7.43c3.05,6.73,4.15,14,4.93,21.24.47,4.33.79,8.68,1.2,13.22l10.79.51c-.94-8.05-1.68-15.7-2.76-23.31a58.79,58.79,0,0,0-5.71-18.57C427.68,223.54,413.07,218,396.29,222.42Zm-167.23,386c-1.17-2.53-2.43-5-3.45-7.56-.61-1.54-1.31-2-3.06-1.75-11.62,1.57-19.34-2.74-24-13.55a47.4,47.4,0,0,1-3.36-11c-1.17-7.12-1.77-14.33-2.67-21.5-.09-.75-.5-2-.87-2.09-3.19-.33-6.41-.43-10-.61.67,6.71,1.14,13.06,2,19.36,1.24,9.33,3.38,18.42,8.66,26.44C199.69,607.35,213,613,229.06,608.38Zm218.52-62.11c10-.62,19.67-1.3,29.13-3.59a52.08,52.08,0,0,0,16.83-7c11.17-7.41,16.67-20.85,12.08-36.64-2.71,1.24-5.38,2.53-8.11,3.68-1.11.48-1.26,1.08-1.26,2.26,0,3.76.27,7.63-.57,11.23-1.51,6.5-6.39,10.33-12.2,13.06s-12.2,4.05-18.6,4.85c-5,.63-10,1-15.05,1.43-.83.08-1.76-.06-1.8,1.27C447.93,539.9,447.74,542.93,447.58,546.27Zm-132,57c1.29,1.16,2.31,2.1,3.35,3,7.78,6.76,15.7,13.32,25,18,5.82,2.93,11.91,4.91,18.52,4.71,12.77-.38,21.16-7.54,27.75-17.9-3.27-1.21-6.28-2.39-9.34-3.41-.39-.14-1.15.38-1.55.79-1.65,1.72-3.08,3.68-4.87,5.23-6.69,5.8-14.24,5.79-22.05,2.8-7.21-2.76-13.39-7.26-19.33-12.08-3.24-2.62-6.4-5.34-9.73-8.14ZM119.68,331.83c2.81-1.28,5.42-2.55,8.1-3.67a1.86,1.86,0,0,0,1.33-2.38,24.65,24.65,0,0,1,.74-12c2.12-6.06,6.66-9.77,12.3-12.31,8-3.64,16.67-4.71,25.34-5.56,3.21-.31,6.44-.52,9.82-.8.16-3.52.31-6.87.47-10.31-1.35,0-2.47-.07-3.57,0-4.17.33-8.34.62-12.49,1.12-8.85,1.07-17.58,2.68-25.66,6.74C120.6,300.47,115.3,315.35,119.68,331.83ZM365,595.69c.19.29.21.37.26.39,1.18.61,2.35,1.23,3.53,1.81,10,4.94,20.16,9.55,31.28,11.46,19.35,3.31,32.28-6.83,37.89-23.21a6.09,6.09,0,0,0,.12-1c-2.68-.18-5.21-.18-7.68-.57-2.15-.35-3.22.17-4.2,2.27-4.32,9.25-11.44,13.32-21.65,12.34A41.46,41.46,0,0,1,393.86,597c-7.3-2.77-14.42-6-21.6-9.14-.94-.4-1.72-1-2.5.29C368.22,590.67,366.58,593.17,365,595.69Zm-216.84-271c-3.61,1.26-6.89,2.34-10.12,3.53-8.23,3-16.34,6.38-23.57,11.47-8.4,5.91-14.28,13.44-15.2,24.08-.62,7.23,1.32,13.88,4.63,20.46,2.47-2.13,4.71-4.18,7.07-6.07a1.92,1.92,0,0,0,.65-2.52,39.94,39.94,0,0,1-1.77-7.33c-.92-8.27,3-14.29,9.35-19,6.6-5,14.14-8.09,21.83-10.89,3.1-1.13,6.21-2.23,9.44-3.38ZM477.23,506.21c3.49-1.22,6.74-2.3,10-3.48,9-3.3,17.84-6.94,25.53-12.82s12.67-13.18,13.43-23c.56-7.16-1.37-13.75-4.63-20.2-2.39,2-4.55,4-6.84,5.75a2.19,2.19,0,0,0-.83,3c4,11.22,1.63,19.64-8.16,26.47a95.13,95.13,0,0,1-14.83,8c-4.69,2.16-9.68,3.66-14.51,5.51-.49.19-1.21.88-1.15,1.21C475.78,499.77,476.5,502.85,477.23,506.21ZM403.85,250.79c-3.37-8.26-6.3-16.3-9.93-24a63.36,63.36,0,0,0-8.26-13.07c-11-13.54-26.55-14.71-41.15-7.35-.16.07-.24.29-.39.5,1.78,2.07,3.67,4,5.3,6.2,1.09,1.44,2,1.75,3.77,1.08,10.13-3.75,18.2-1.45,25,6.94a42.68,42.68,0,0,1,2.79,3.87c5.1,8,8.23,16.93,11.32,25.84.27.79.6,1.56.92,2.4ZM232.17,577.69,222,580c1,2.85,1.8,5.43,2.72,8,3.16,8.76,6.58,17.4,11.85,25.16C247.2,628.83,263,633.12,280,625c.45-.22.86-.52,1.37-.82-2-2.28-3.94-4.35-5.65-6.62-1-1.33-1.83-1.41-3.32-.86-10.44,3.86-18.75,1.47-25.61-7.32-4.84-6.2-7.88-13.35-10.64-20.63C234.81,585.15,233.55,581.52,232.17,577.69Zm-99.79-110c-.28.3-.47.42-.54.58-3.49,8-7.26,15.95-10.37,24.11a45.51,45.51,0,0,0-2.9,22.69c1.65,12,12.8,23.82,24.38,25.66.22-3,.38-5.94.7-8.89a2.18,2.18,0,0,0-1.35-2.46,44,44,0,0,1-7.76-5.13c-5.69-5.22-6.49-12.06-5.43-19.27,1.25-8.58,4.7-16.42,8.32-24.2,1.16-2.5,2.37-5,3.61-7.58ZM482.45,290.11c-.22,2.9-.37,5.8-.7,8.69a2.26,2.26,0,0,0,1.54,2.72c10.7,5,14.82,12.9,13,24.53-1.34,8.42-4.67,16.16-8.22,23.81-1.19,2.57-2.43,5.11-3.69,7.77l8.72,5.53a4.82,4.82,0,0,0,.56-.78c3.23-7.27,6.71-14.45,9.6-21.85,3.08-7.91,4.77-16.15,3.58-24.76C505.16,303.79,494.09,292,482.45,290.11ZM260.36,235.17c-.22-.28-.28-.43-.38-.48a152.81,152.81,0,0,0-26.73-11.32c-7.39-2.19-14.91-3.35-22.59-1.6-11.1,2.54-21.7,13.41-23.3,23.95,2.64.18,5.3.19,7.9.6,2.05.33,3-.27,3.87-2.18,3.61-7.79,9.53-12.52,18.42-12.61a39.8,39.8,0,0,1,8.49.88c9.37,2,17.92,6.13,26.47,10.26l2.35,1.12C256.77,240.81,258.54,238,260.36,235.17ZM215.83,296.3c-4.39.43-8.47.8-12.54,1.25a2.13,2.13,0,0,0-1.27.82c-5,6.43-11.73,10.52-19,13.76-5.21,2.31-10.6,4.21-15.89,6.34-.57.23-1.48.92-1.42,1.24.58,3.16,1.33,6.29,2.07,9.59a162.31,162.31,0,0,0,25.65-10.59,51.75,51.75,0,0,0,21.18-20.19C215,297.85,215.36,297.17,215.83,296.3Zm193.7,238.28c4.42-.42,8.44-.78,12.46-1.24.54-.06,1.06-.66,1.53-1.07,3-2.69,5.66-5.95,9.05-8a191.12,191.12,0,0,1,17.76-8.9c3-1.42,6.29-2.38,9.56-3.58-.79-3.44-1.54-6.72-2.35-10.29-2.76,1-5.38,1.88-8,2.85-9.48,3.56-18.76,7.5-26.8,13.82C417.2,522.58,413.07,528.1,409.53,534.58Zm-216-22.31a75.55,75.55,0,0,1,.83,7.89c0,3.46.8,6.36,4,8.22a4.45,4.45,0,0,1,.84.84c6.41,6.74,10.19,15,13.53,23.49,1.28,3.25,2.43,6.55,3.66,9.9l9.92-2.25a3,3,0,0,0,0-.69c-3.65-11.06-7.75-21.91-14.41-31.6C207.2,521.31,201.05,516.29,193.49,512.27ZM399,270.55a10.4,10.4,0,0,0,.35,1.42c3.3,8,6.29,16.07,10,23.83a48.44,48.44,0,0,0,20.3,21.57c.66.37,1.33.71,2.2,1.18-.42-4.38-.77-8.4-1.23-12.41a2.77,2.77,0,0,0-1.06-1.56,41.12,41.12,0,0,1-9.41-11c-4.41-7.17-7.33-15-10.14-22.89-.28-.78-.59-1.56-.92-2.43Zm85.78,108.9-8.6-5.48c-.37.65-.71,1.13-.95,1.66-2.45,5.51-5.07,11-7.28,16.57C464.66,400.46,462.31,409,463,418c.34,4.36,1.3,8.68,2,13l.65,0c2.58-3.18,5.19-6.35,7.73-9.56a2.19,2.19,0,0,0,.3-1.48c-1.06-8.24,1-16,3.89-23.52C479.73,390.78,482.26,385.3,484.75,379.45ZM160,399.64c-2.59,3.2-5,6-7.2,9a5.89,5.89,0,0,0-.95,3c-.25,3.56,0,7.19-.55,10.68-1.5,9.19-5.38,17.59-9.34,25.93-.47,1-.93,2-1.44,3.08l8.67,5.51a3.81,3.81,0,0,0,.53-.57c5.22-10.61,10.16-21.33,12.19-33.11C163.21,415.28,162.34,407.58,160,399.64ZM328.23,263.11v-.63c-3.18-2.58-6.33-5.19-9.56-7.7a3.4,3.4,0,0,0-1.87-.28c-2.78,0-5.59.23-8.33-.07-8.28-.92-15.9-4-23.44-7.39-2.71-1.21-5.38-2.49-8.21-3.81l-5.65,8.84c8.91,4.44,17.64,8.45,26.95,11a48.25,48.25,0,0,0,17.7,2C320,264.68,324.09,263.79,328.23,263.11ZM296.91,568.19c3.11,2.51,6,4.74,8.73,7.11a4.54,4.54,0,0,0,3.39,1.1,60.83,60.83,0,0,1,10.11.4c9.68,1.54,18.48,5.68,27.25,9.84.7.33,1.4.64,2.2,1l5.57-8.73a13.29,13.29,0,0,0-1.35-.8c-6.63-2.87-13.2-5.93-19.95-8.52a51.93,51.93,0,0,0-35.95-1.39Zm78.66-12.34c4.3.75,8.26,1.47,12.22,2.11a1.88,1.88,0,0,0,1.23-.51c5.34-4.41,11.66-6.61,18.33-7.67s13.43-1.6,20.14-2.43c.66-.09,1.79-.55,1.82-.92.3-3.2.39-6.42.55-9.66a9,9,0,0,0-1.1-.12c-7.18.79-14.4,1.34-21.54,2.42-11.57,1.75-21.94,6.16-30,15C376.7,554.56,376.24,555.09,375.57,555.85ZM453.1,352.59c.74-4.23,1.43-8,2-11.8a2.23,2.23,0,0,0-.42-1.62c-4.42-5.42-6.65-11.8-7.72-18.55s-1.57-13.31-2.39-20c-.08-.66-.56-1.82-.9-1.83-3.21-.14-6.43-.08-9.93-.08.42,4.58.77,9.21,1.3,13.82,1,8.4,2.45,16.69,6,24.46C443.83,343,448,348,453.1,352.59ZM195.94,294.11a2.4,2.4,0,0,0,.62.07c8.1-.94,16.25-1.58,24.29-2.92a46.89,46.89,0,0,0,27.74-14.84c.37-.4.68-.86,1.11-1.41-4.11-.72-7.95-1.42-11.8-2a2.29,2.29,0,0,0-1.6.52c-5.25,4.28-11.44,6.5-18,7.55-6.8,1.1-13.69,1.67-20.54,2.44-1,.11-1.88,0-1.86,1.43C196,287.9,195.94,290.89,195.94,294.11ZM488.13,425.93l-6.93-7.58c-6.36,7.12-12.31,14.15-17.15,22-3.64,5.94-6.49,12.2-7.27,19.2-.38,3.43-.39,6.9-.59,10.85,3.78-2.66,7-4.88,10.14-7.17a2.06,2.06,0,0,0,.69-1.33c.83-7.73,4.4-14.29,8.88-20.38C479.75,436.34,483.89,431.33,488.13,425.93ZM191.47,532.17a158.7,158.7,0,0,0-3.52-27.7A47.45,47.45,0,0,0,174,479.89c-.51-.47-1-.92-1.76-1.56-.74,4.24-1.45,8.14-2.07,12.05a2,2,0,0,0,.52,1.41c4.3,5.24,6.5,11.44,7.57,18,1.1,6.8,1.63,13.69,2.49,20.54.08.66.72,1.76,1.14,1.79C185,532.24,188.12,532.17,191.47,532.17ZM169,360.58c-3.28,2.32-6.25,4.32-9.07,6.49a5.83,5.83,0,0,0-1.65,2.67c-1.37,3.92-2,8.21-4,11.75-3.16,5.57-7.11,10.7-10.88,15.9-1.85,2.55-4.06,4.85-6.21,7.39l7.11,7.82c2.62-3.08,5.06-5.88,7.41-8.74,5.58-6.79,10.72-13.86,14.15-22C168.6,375.16,169.36,368.19,169,360.58ZM309.71,584.05a9.14,9.14,0,0,0-.8-.89c-6.62-5.19-13.1-10.58-19.92-15.49A44.62,44.62,0,0,0,271.23,560a48.47,48.47,0,0,0-13.32-.72c2.5,3.55,4.79,6.86,7.15,10.11a1.86,1.86,0,0,0,1.24.48c6.74.66,12.68,3.46,18.05,7.33,5.63,4.07,11,8.57,16.46,12.83.46.35,1.48.68,1.76.45C305,588.4,307.31,586.23,309.71,584.05Zm57.42-312,.18-.68c-2-2.8-4-5.55-5.91-8.41a4.79,4.79,0,0,0-3.29-2.14,55,55,0,0,1-9.47-2.83c-6.75-2.93-12.49-7.47-18.14-12.11-2.39-2-4.73-4-7.16-6.05l-7.66,7a12.23,12.23,0,0,0,1,1c4.92,4,9.72,8.23,14.82,12,6.89,5.15,14.27,9.55,22.91,11C358.57,271.63,362.87,271.71,367.13,272.07Zm35.17,18.7c-1.64-4.18-3.1-8-4.67-11.79-.21-.51-1-.81-1.49-1.17-3-2-6.33-3.55-8.82-6a143.56,143.56,0,0,1-11.21-12.89c-2.51-3.15-4.62-6.61-7-10.05l-9.33,4.78c6.66,10.15,13.12,20,22.33,27.73C387.89,286.19,394.61,289,402.3,290.77Zm-8.53,272.55a8.22,8.22,0,0,0-1.29-.44c-7-1.17-14-2.57-21-3.43-11.29-1.37-22.12.2-32,6.27-.6.36-1.17.76-1.93,1.26,4,1.75,7.68,3.38,11.39,5a2.27,2.27,0,0,0,1.52,0c7.67-3.13,15.61-2.71,23.55-1.65,5.06.67,10.06,1.73,15.11,2.54.53.08,1.54-.25,1.68-.63C391.87,569.32,392.78,566.36,393.77,563.32ZM188,325.82c-4.14,1.62-8,3.1-11.84,4.7-.51.21-.79,1-1.15,1.5-2,3-3.66,6.19-6,8.86-5.44,6.25-12.26,10.91-19.1,15.5L146.07,359l4.87,9.5c4.67-3.24,9.09-6.17,13.36-9.31,6.28-4.62,12.13-9.7,16.61-16.18A48.39,48.39,0,0,0,188,325.82ZM155.11,493.37l9.68,3.14a5.56,5.56,0,0,0,.39-.94c1.22-7.4,2.69-14.77,3.57-22.21,1.31-11.12-.52-21.71-6.48-31.39-.33-.53-.7-1-1.14-1.67-1.71,3.94-3.32,7.57-4.87,11.24a2.5,2.5,0,0,0-.08,1.7c3.08,7.63,2.69,15.5,1.65,23.38C157.11,482.14,156.06,487.62,155.11,493.37Zm110.5,83.88c-5.62-8.6-11.14-16.84-18.17-24a46.59,46.59,0,0,0-22.75-12.79c-.46-.11-.94-.13-1.54-.21,1.54,3.94,2.95,7.65,4.47,11.32a3.73,3.73,0,0,0,1.5,1.41c2.55,1.64,5.54,2.84,7.63,4.93,4.44,4.44,8.55,9.22,12.53,14.08,2.55,3.1,4.63,6.59,7,10ZM437.34,505.1c3.05-1.22,5.68-2.48,8.45-3.34s4.67-2.13,5.61-4.95a15,15,0,0,1,2.3-3.71,59.17,59.17,0,0,1,12.76-12.22c4.15-3.08,8.42-6,12.78-9.09-1.55-3-3.11-6.08-4.75-9.28-10.24,6.75-20.26,13.27-28,22.65C441.82,490.88,439.09,497.51,437.34,505.1ZM231.61,267.56a5.91,5.91,0,0,0,.94.37c7.06,1.19,14.09,2.63,21.19,3.48,8.23,1,16.46.72,24.29-2.48,3.32-1.37,6.5-3.09,10.21-4.88-4-1.72-7.33-3.1-10.61-4.63a4.48,4.48,0,0,0-3.77-.19,30.39,30.39,0,0,1-5.94,1.56c-7.38,1.16-14.68.21-22-1-3.7-.61-7.38-1.35-11.16-2C233.71,261.1,232.69,264.24,231.61,267.56Zm228.93,66.8a9.75,9.75,0,0,0-.39,1.19c-1.17,6.94-2.56,13.84-3.43,20.82-1.42,11.43.17,22.39,6.31,32.4.35.57.74,1.11,1.22,1.83,1.57-3.62,2.93-6.94,4.46-10.17a4.73,4.73,0,0,0,.13-4,30,30,0,0,1-1.52-6c-1.2-8.14,0-16.16,1.41-24.15.5-2.92,1.09-5.82,1.65-8.81Zm-299,200.13c-.11,2.4-.31,4.64-.31,6.87,0,4.16-.52,3.61,3.53,3.9,11.77.83,23.55,1.49,35.32,2.23,2,.12,4,.27,6.58.44-1.78-3.33-3.36-6.14-4.78-9-.82-1.66-2.06-2.1-3.82-2.17q-11.41-.48-22.83-1.18C170.84,535.28,166.42,534.87,161.58,534.49ZM180.2,309.33c2.69-1.35,5-2.67,7.39-3.68,3-1.24,3.86-3.32,4-6.47.5-11.12,1.31-22.23,2-33.34a11.19,11.19,0,0,0-.07-1.38c-.63-.09-1.14-.19-1.66-.23-1.52-.08-3.05-.22-4.57-.2-4.79.09-4.1-.83-4.45,4-.84,11.44-1.46,22.89-2.17,34.34C180.53,304.53,180.38,306.7,180.2,309.33Zm265,212.24c-2.59,1.3-4.84,2.54-7.18,3.56-3,1.28-4,3.33-4.14,6.6-.5,11.26-1.37,22.5-2.1,33.75a5.66,5.66,0,0,0,.11,1c.61.08,1.13.19,1.66.22,1.65.08,3.31.23,5,.2,4.32-.07,3.73.73,4.06-3.79.82-11,1.42-22,2.11-33C444.81,527.42,445,524.72,445.16,521.57Zm18.63-225.12c.13-2.29.33-4.34.32-6.38,0-4.85.68-4.13-4-4.48-10.73-.79-21.47-1.39-32.2-2.06-2.89-.18-5.77-.34-9.19-.53,1.73,3.25,3.28,6.09,4.75,9a3.81,3.81,0,0,0,3.64,2.16c8.75.4,17.5.89,26.25,1.41C456.74,295.74,460.09,296.12,463.79,296.45ZM144.07,434.15c1.08-3.67,2-7,3-10.23a3,3,0,0,0-.78-3.23c-8-9-15.89-18-23.82-27.05a9.12,9.12,0,0,0-1-.83c-2.5,2.37-4.93,4.68-7.62,7.25ZM331.4,584.07c-3.6-1.07-6.83-2-10-3a3.32,3.32,0,0,0-3.58.85c-8.93,7.94-17.93,15.8-26.91,23.69-.23.21-.44.46-.88.92l7.3,7.75Zm-3.3-367.49L294,246.82c3.7,1.09,7,2,10.27,3.05a3,3,0,0,0,3.22-.82q12.72-11.34,25.51-22.56c.73-.65,1.5-1.25,2.49-2.07ZM503.85,438c1.33-1.18,2.74-2.37,4.09-3.62,3.53-3.27,3.6-3.35.4-7-8.08-9.24-16.25-18.42-24.38-27.62l-2.66-3c-1.15,4-2.22,7.55-3.14,11.12a2.53,2.53,0,0,0,.59,1.94C487,419.07,495.31,428.38,503.85,438ZM467.25,530c2.74-.61,5.36-1.27,8-1.78,1.74-.33,2.21-1.1,1.84-2.87-2.57-12.2-5-24.43-7.55-36.65-.3-1.46-.63-2.91-1.05-4.83-2.75,2.43-5.13,4.62-7.61,6.7a3.09,3.09,0,0,0-1,3.5c1.68,7.45,3.33,14.9,4.89,22.37C465.66,520.88,466.38,525.32,467.25,530ZM156.9,346.93c2.67-2.34,5-4.48,7.44-6.51a3.37,3.37,0,0,0,1.17-3.82q-2.55-11.06-4.86-22.16c-.91-4.4-1.64-8.84-2.52-13.6-2.79.63-5.47,1.28-8.18,1.83-1.54.31-2,1-1.69,2.63,1.68,8.12,3.22,16.27,4.89,24.39C154.29,335.26,155.57,340.81,156.9,346.93Zm224.29-87.34c2.32,2.66,4.4,5,6.36,7.34a3.65,3.65,0,0,0,4.14,1.29c9.39-2.08,18.8-4.06,28.22-6,2.37-.5,4.77-.82,7.41-1.26-.66-2.88-1.33-5.51-1.84-8.16-.32-1.68-1.08-2.11-2.75-1.75-11,2.31-22,4.55-32.92,6.81Zm-6.76,314.47c-3.6-.24-6.76-.39-9.9-.67a3.43,3.43,0,0,0-3.53,1.88c-6.44,9.88-13,19.7-19.49,29.54a9.28,9.28,0,0,0-.47,1c2.42,1.54,4.79,3,7.1,4.54,1.23.82,2,.75,2.85-.6,4.95-7.61,10-15.15,15-22.73C368.72,582.89,371.41,578.71,374.43,574.06ZM250.9,256.8c3.55.25,6.63.41,9.7.69a3.67,3.67,0,0,0,3.86-2c5.08-8,10.27-16,15.47-23.9,1.4-2.14,2.95-4.18,4.57-6.46l-9.16-5.71C267.19,231.89,259.19,244.12,250.9,256.8Zm-6.67,314.5c-2.39-2.73-4.52-5.07-6.55-7.5a3.37,3.37,0,0,0-3.82-1.18q-11,2.52-22,4.81c-4.47.93-9,1.68-13.8,2.58l2.4,10.46ZM116.64,452.78l37.45,24.46c.24-3.81.4-7.1.65-10.39a2.81,2.81,0,0,0-1.57-2.89c-6-3.77-12-7.58-17.94-11.47-4.26-2.8-8.43-5.74-12.88-8.78ZM471.29,354c-.22,3.3-.36,6.41-.66,9.5a3.55,3.55,0,0,0,2,3.69c9.1,5.85,18.12,11.81,27.16,17.75,1,.68,2,1.44,3.21,2.31,1.56-2.48,3-4.8,4.48-7.05.91-1.36.85-2.2-.64-3.17-11.55-7.55-23.05-15.18-34.58-22.77A4.25,4.25,0,0,0,471.29,354ZM137,491.29l-3.34,9.94,42,14.12c-.81-3.53-1.59-6.72-2.26-9.94a3.58,3.58,0,0,0-2.76-2.93C159.51,498.85,148.45,495.13,137,491.29Zm8.18-102.11c2-3.14,3.67-6,5.51-8.83a3.24,3.24,0,0,0,.11-3.67q-4.92-9.56-9.69-19.2c-2.06-4.15-4-8.35-6.15-12.8l-9.5,4.83ZM212.75,278.4c3.73-.87,7.05-1.68,10.39-2.4a3,3,0,0,0,2.37-2.32q3.28-10.23,6.72-20.4c1.5-4.45,3.11-8.85,4.77-13.54l-10.1-3.36C222.17,250.41,217.57,264.09,212.75,278.4ZM398.48,594.52c4.75-14.12,9.36-27.84,14.13-42-3.74.88-7.07,1.69-10.41,2.43a2.81,2.81,0,0,0-2.28,2.15c-2.48,7.62-5,15.23-7.59,22.83-1.24,3.69-2.55,7.36-3.9,11.26Zm51.25-279c.87,3.71,1.68,7,2.39,10.26a3.12,3.12,0,0,0,2.4,2.53c8.77,2.84,17.51,5.76,26.25,8.69,2.49.83,4.93,1.78,7.62,2.76,1.14-3.39,2.2-6.56,3.39-10.09Zm30.53,126.2c-1.91,3.06-3.58,5.83-5.37,8.53a3.77,3.77,0,0,0-.13,4.22c5.17,10.31,10.24,20.68,15.34,31,.08.17.19.34.36.65l9.55-4.76ZM378.65,228.16l-39.71,19.72c3.19,2,6,3.67,8.78,5.47a3.46,3.46,0,0,0,3.86.08c8.87-4.49,17.77-8.91,26.68-13.33,1.63-.82,3.3-1.56,5.16-2.43ZM246.72,602.72,286.44,583c-3.15-2-6-3.7-8.86-5.52a3.27,3.27,0,0,0-3.67-.09c-8.82,4.47-17.67,8.87-26.52,13.27-1.7.85-3.44,1.62-5.4,2.53Zm66,3.26-12.16,10.4c6.51,6.14,17.61,6.15,24.33,0Zm-201-202.77c-6.19,7.65-6.08,18.89.12,24.31l10.34-12.08Zm402,0-10.43,12.2c3.52,4.12,6.95,8.12,10.38,12.15C520.34,419.73,519.37,410.14,513.67,403.24ZM300.54,214.49l12.19,10.42c2.15-1.87,4.14-3.62,6.15-5.34s4-3.39,6-5.11C317.57,208.34,307.22,208.36,300.54,214.49Zm162.84,67.45c-.32-9.15-9.24-17.92-17.18-17q.63,7.86,1.25,15.77ZM179.17,264.73c-9.32.6-17.69,9.12-17,17.17,5-.36,9.9-.7,14.85-1.11a1.42,1.42,0,0,0,1-.87C178.44,274.91,178.79,269.89,179.17,264.73Zm267,301.4c8.94-.25,17.14-8.45,17.19-17-.12-.07-.24-.2-.34-.19-4.9.36-9.8.71-14.69,1.17-.38,0-.91.85-1,1.34-.28,2.71-.42,5.43-.63,8.14C446.55,561.79,446.34,564,446.15,566.13Zm-267,0C178.79,561,178.45,556,178,551c0-.37-1-.86-1.59-.92-4.29-.41-8.6-.72-12.9-1.06-.49,0-1,0-1.49,0A18.43,18.43,0,0,0,179.18,566.15Zm174.44,46.52c7.55,4.48,19.63.69,22.54-7l-13.32-6.43ZM115.4,374.49c4.31-2.89,8.5-5.68,12.65-8.52.32-.22.65-1,.51-1.25-2-4.31-4.09-8.58-6.16-12.88C114.37,356.85,111.07,365.11,115.4,374.49ZM510,456.32c-4.33,2.94-8.54,5.78-12.7,8.69a1.56,1.56,0,0,0-.34,1.46c2,4.19,4,8.34,6,12.5C510.93,475.06,514.15,464.85,510,456.32Zm0-81.86c4.23-8.28.72-19.33-7-22.5-2,4.11-4,8.21-6,12.35a1.59,1.59,0,0,0,.21,1.49C501.4,368.71,505.64,371.54,510,374.46ZM376.22,225.16c-4.89-8.32-13.84-11.26-22.53-6.92,3.05,4.47,6.09,8.91,9.14,13.36ZM122.35,479c2.08-4.28,4.14-8.43,6.08-12.64.17-.37-.3-1.32-.73-1.63-2.43-1.74-4.94-3.35-7.41-5-1.62-1.11-3.22-2.25-4.84-3.38C111.17,464.55,114.11,474.18,122.35,479ZM249.18,605.71c5,8.65,14.12,11.09,22.53,6.94-3-4.46-6.1-8.9-9.16-13.38Zm0-380.54c4.16,2,8.31,4.07,12.52,6,.38.17,1.4-.37,1.74-.85,2.38-3.34,4.66-6.76,7-10.15.46-.67.91-1.36,1.39-2.07C263.08,214,252.59,217.37,249.19,225.17Zm-105,79.77c-8.77,2.69-14.11,12.94-10.94,20.84,4.37-1.52,8.75-3,13.1-4.58a1.58,1.58,0,0,0,.69-1.32C146.18,314.94,145.2,310,144.22,304.94Zm78.86-69c-9-2.6-19.17,2.87-20.78,11.09l15.83,3ZM423.23,247c-3-9-13.52-14.42-20.86-10.88,1.61,4.59,3.23,9.2,4.88,13.87Zm-.06,336.88-15.93-3c-1.68,4.78-3.3,9.41-4.93,14.06C411.42,597.45,420.63,592.54,423.17,583.88ZM147.16,510l-13.92-4.88c-2.93,8.41,3.29,19.93,11,20.66q1.45-7.5,2.89-15A4.54,4.54,0,0,0,147.16,510Zm345.07-4.91c-4.48,1.56-8.86,3-13.19,4.64-.38.15-.73,1.15-.64,1.68.48,2.94,1.11,5.86,1.67,8.79.36,1.91.68,3.84,1,5.78C489.78,523.41,494.62,514.34,492.23,505.05ZM223.1,595l-5-14.08-15.9,3C204.78,592.55,214,597.45,223.1,595ZM492.22,325.81c2.57-9-2.87-19.1-11.08-20.76-1,5-2,10-2.85,15-.07.36.46,1.08.86,1.23C483.44,322.8,487.76,324.27,492.22,325.81ZM177.15,531.92c-.36-4-.66-7.58-1-11.13a1.52,1.52,0,0,0-.64-1.11c-3.49-1.37-7-2.66-10.84-4.09-.91,5.18-1.76,10-2.65,15Zm283.58-16.34c-3.76,1.4-7.12,2.63-10.44,3.92a1.71,1.71,0,0,0-1,1.07c-.4,3.67-.71,7.35-1.07,11.36l15.17-1.33C462.5,525.48,461.65,520.74,460.73,515.58Zm0-200.29c.91-5.2,1.75-10,2.64-15L448.24,299c.36,4,.68,7.71,1.06,11.38a1.48,1.48,0,0,0,.83,1C453.52,312.63,456.93,313.88,460.75,315.29ZM197.51,566.16l15-2.69c-1.42-3.78-2.67-7.2-4-10.59a1.48,1.48,0,0,0-1-.82c-3.67-.39-7.35-.71-11.37-1.07C196.66,556.15,197.07,560.94,197.51,566.16ZM164.65,315.3c3.75-1.4,7.11-2.62,10.43-3.92a1.69,1.69,0,0,0,1-1c.41-3.67.72-7.35,1.08-11.39L162,300.29C162.89,305.41,163.73,310.15,164.65,315.3Zm114.17-75.36c3.66,1.68,6.89,3.18,10.16,4.62a1.68,1.68,0,0,0,1.44,0c2.87-2.31,5.69-4.7,8.78-7.29-4-3.35-7.67-6.48-11.64-9.81Zm134.1,27.44a41.92,41.92,0,0,1,2,5.8c.87,4.82,3.69,6.66,8.42,6.3a45,45,0,0,1,5.87.32c-.46-5.17-.88-10-1.34-15.06ZM137.19,381.57l-12.51,8.74,9.8,11.64c2.6-3.1,5-5.91,7.31-8.78a1.7,1.7,0,0,0,0-1.45C140.38,388.46,138.87,385.22,137.19,381.57Zm363.53,8.73-12.54-8.71c-1.66,3.62-3.17,6.86-4.61,10.12a1.74,1.74,0,0,0,0,1.45c2.32,2.87,4.72,5.69,7.31,8.78ZM346.56,239.94l-8.75-12.52-11.61,9.81c3.06,2.58,5.82,4.93,8.63,7.21a1.64,1.64,0,0,0,1.43.18C339.59,243.17,342.88,241.63,346.56,239.94Zm-67.73,351,8.75,12.53,11.61-9.84c-3.05-2.56-5.77-4.87-8.53-7.12a1.69,1.69,0,0,0-1.42-.3C285.85,587.69,282.51,589.25,278.83,590.94Zm59,12.52,8.7-12.54c-3.64-1.66-6.94-3.18-10.26-4.65a1.48,1.48,0,0,0-1.27.05c-2.9,2.35-5.76,4.77-8.83,7.33ZM500.71,440.58l-9.82-11.66c-2.56,3.07-4.89,5.84-7.18,8.65a1.49,1.49,0,0,0-.28,1.25c1.51,3.42,3.09,6.82,4.76,10.47ZM412.83,563.49l15,2.65c.44-5.2.85-10,1.29-15.15-4,.35-7.54.63-11.09,1a2.07,2.07,0,0,0-1.35,1.16C415.42,556.44,414.23,559.74,412.83,563.49ZM197.51,264.73c-.44,5.23-.86,10.06-1.29,15.17,4-.36,7.56-.65,11.11-1a1.64,1.64,0,0,0,1.2-.82c1.35-3.43,2.61-6.89,4-10.65ZM137.18,449.29c1.68-3.64,3.24-7,4.74-10.35a1.49,1.49,0,0,0-.15-1.27c-2.33-2.86-4.71-5.67-7.29-8.74l-9.8,11.65Zm343.94,26a54.29,54.29,0,0,1-5.64,3.72c-3.05,1.49-3.7,3.6-2.68,6.71a55.3,55.3,0,0,1,1.32,6.48l12.79-4.62ZM240.56,241.25l-4.67,12.84c3.62.65,7,1.26,10.33,1.82a1.09,1.09,0,0,0,.83-.43c1.89-2.74,3.76-5.51,5.76-8.46ZM384.87,589.61c1.57-4.41,3-8.44,4.58-12.8-3.55-.65-6.86-1.27-10.17-1.83a1.27,1.27,0,0,0-1,.49c-1.88,2.71-3.72,5.44-5.73,8.4ZM151.29,338.66c-4.11,1.5-7.95,2.88-11.76,4.34a1.32,1.32,0,0,0-.48,1.21c1.65,3.72,3.38,7.41,5.22,11.37,3-2,5.73-3.88,8.42-5.76a1.22,1.22,0,0,0,.47-1C152.59,345.53,152,342.24,151.29,338.66ZM236,576.85l4.61,12.76,12.24-5.79c-2-3-3.8-5.64-5.66-8.28A1.45,1.45,0,0,0,246,575C242.74,575.55,239.5,576.18,236,576.85ZM481.09,355.56l5.76-12.28-12.76-4.57c-.66,3.53-1.3,6.76-1.84,10a1.67,1.67,0,0,0,.68,1.28C475.52,351.81,478.16,353.57,481.09,355.56ZM151.29,492.18c.67-3.56,1.3-6.79,1.87-10a1.27,1.27,0,0,0-.4-1c-2.74-1.92-5.51-3.79-8.47-5.81l-5.75,12.29ZM389.44,254c-1.59-4.4-3.07-8.47-4.63-12.79l-12.21,5.82c2,2.94,3.75,5.58,5.56,8.18a1.49,1.49,0,0,0,1.09.65C382.56,255.35,385.86,254.71,389.44,254Z" transform="translate(-72.78 -36.81)"/><path class="cls-3" d="M260.41,654.47v32.26a17.68,17.68,0,0,1-4.14,12,13.31,13.31,0,0,1-10.49,4.75,14.62,14.62,0,0,1-4.35-.8V688.94a4.86,4.86,0,0,0,1.93.46q2.8,0,2.81-4.52V654.47Z" transform="translate(-72.78 -36.81)"/><path class="cls-3" d="M285.94,678.32v12.62h-4.1v11.4H267.6V671.9q0-8.83,4.82-13.73T286,653.28q8.41,0,12.45,4.43t4,13.7v30.93H288.22v-30a8,8,0,0,0-.67-3.89,2.57,2.57,0,0,0-2.38-1.09q-3.33,0-3.33,5v6Z" transform="translate(-72.78 -36.81)"/><path class="cls-3" d="M325.33,667.34v35H311.09V654.47h18.27q8.34,0,12.94,4.14a15.15,15.15,0,0,1,5.12,11.75q0,7.26-6.35,12.24l8.21,19.74H334.34l-6.91-15.43V674.6h1.12c3,0,4.49-1.29,4.49-3.86q0-3.4-5.19-3.4Z" transform="translate(-72.78 -36.81)"/><path class="cls-3" d="M371.41,678.32v12.62h-4.1v11.4H353.07V671.9q0-8.83,4.82-13.73t13.56-4.89q8.42,0,12.45,4.43t4,13.7v30.93H373.69v-30a8.1,8.1,0,0,0-.66-3.89,2.59,2.59,0,0,0-2.39-1.09q-3.33,0-3.33,5v6Z" transform="translate(-72.78 -36.81)"/><path class="cls-4" d="M389.23,99.44H235.15a2.67,2.67,0,0,1,0,.4,5,5,0,0,1,.92,2A4.82,4.82,0,0,1,237,103a.75.75,0,0,1,.32-.27c2.89-1.12,5.87-1.36,8.62.32a35.38,35.38,0,0,1,4.63,3.44c2.92,2.52,6.13,3.81,10.13,2.88a2.21,2.21,0,0,1,1.86.87c.45.91-.23,1.55-1.24,1.73s-2.27.35-3.4.52a13.07,13.07,0,0,1-7.82-2.79c-1.54-1.16-3-2.42-4.52-3.59a6.65,6.65,0,0,0-6.33-1.15c-.38.12-.83.38-1.15.28a3,3,0,0,1-.5-.19,4.87,4.87,0,0,1,0,.54,5.33,5.33,0,0,1,.34,2,9.92,9.92,0,0,0,8.2,1.85c1.09-.23,2.22-.42,2.48.94s-1,1.57-2,1.77a13.18,13.18,0,0,1-6-.16,5.26,5.26,0,0,1,.82,3.19h142a5.29,5.29,0,0,1,.64-2.92l-1.75.25a13.92,13.92,0,0,1-8.63-3.42c-1.24-1-2.45-2-3.71-3a6.63,6.63,0,0,0-6.34-1.12c-.38.12-.83.37-1.15.28a10.82,10.82,0,0,1-1.79-.92c.35-.55.57-1.43,1.07-1.62,2.9-1.1,5.88-1.35,8.63.36a41.43,41.43,0,0,1,4.89,3.65,10.8,10.8,0,0,0,9.71,2.67,1.71,1.71,0,0,1,.84.1,5.43,5.43,0,0,1,.29-1.74c-.36-.29-.72-.58-1.07-.88-2.32-2-4.87-2.88-8-1.74-.88.33-1.94.42-2.32-.7s.52-1.61,1.54-1.94a9.89,9.89,0,0,1,9.6,1.49c.46.35.9.7,1.34,1a4.79,4.79,0,0,1,1.94-3.37A5.53,5.53,0,0,1,389.23,99.44ZM274.7,112c-1.13.2-2.28.31-3.42.45a13.8,13.8,0,0,1-8.3-3.35c-.93-.74-1.84-1.5-2.75-2.27-2.31-2-4.86-2.87-7.94-1.73-.88.32-1.93.44-2.31-.7s.51-1.61,1.53-1.94a9.89,9.89,0,0,1,9.6,1.49q2,1.5,3.84,3.08a10.05,10.05,0,0,0,9.14,2.29c1-.23,1.93-.16,2.2,1S275.66,111.82,274.7,112Zm14.27-.06c-1.13.2-2.27.35-3.41.52a13,13,0,0,1-7.81-2.8c-1.44-1.09-2.82-2.27-4.24-3.39a6.84,6.84,0,0,0-6.78-1.28c-.33.1-.72.32-1,.22a12.54,12.54,0,0,1-1.8-.89c.34-.56.54-1.44,1-1.63,2.9-1.11,5.87-1.34,8.63.33a33.4,33.4,0,0,1,4.5,3.34c2.95,2.57,6.18,3.93,10.26,3a2.19,2.19,0,0,1,1.85.9C290.68,111.14,290,111.76,289,111.93Zm13.3.1a12.6,12.6,0,0,1-10.47-2.11c-1.6-1.17-3.1-2.46-4.66-3.69a6.92,6.92,0,0,0-6.79-1.26c-.38.13-.84.36-1.16.25-.58-.2-1.41-.54-1.51-1a1.72,1.72,0,0,1,.83-1.52,44.85,44.85,0,0,1,4.83-1.22,48.68,48.68,0,0,1,5.25,2.34,32.78,32.78,0,0,1,4.14,3.24,10,10,0,0,0,9,2.23c1-.23,1.95-.23,2.24.88C304.29,111.47,303.28,111.82,302.27,112Zm14.37-.16a17.82,17.82,0,0,1-3.38.58,14,14,0,0,1-8.91-3.61c-1.14-.92-2.27-1.87-3.43-2.77a6.67,6.67,0,0,0-6.34-1.15c-.38.11-.82.37-1.15.28a11.12,11.12,0,0,1-1.81-.87c.33-.56.53-1.45,1-1.64,2.89-1.12,5.87-1.37,8.63.32a34.5,34.5,0,0,1,4.63,3.44c2.92,2.52,6.12,3.8,10.13,2.89.55-.13,1.32.63,2,1C317.56,110.86,317.22,111.66,316.64,111.87ZM330,112c-1,.19-2.05.28-3.07.42a13.48,13.48,0,0,1-8.36-3.18c-.94-.74-1.86-1.5-2.75-2.28-2.39-2.08-5-3.07-8.23-1.86-.9.34-1.93.34-2.26-.81s.54-1.51,1.48-1.83a9.94,9.94,0,0,1,9.76,1.52c1.35,1,2.66,2.12,4,3.19a9.94,9.94,0,0,0,8.85,2.15c1.08-.23,2.07-.21,2.31,1S330.92,111.84,330,112Zm14,0c-1,.18-2.05.27-3.08.41a12.78,12.78,0,0,1-7.53-2.61c-1.32-1-2.59-2-3.84-3.08-2.29-1.94-4.79-2.76-7.8-1.67-1,.34-2.07.46-2.4-.8s.71-1.55,1.69-1.86a9.81,9.81,0,0,1,9.45,1.5c1.35,1,2.66,2.1,4,3.19a9.94,9.94,0,0,0,9,2.22c1-.23,1.95-.2,2.24.89C346,111.48,345,111.84,344,112Zm13.83,0c-1.08.19-2.16.31-3.24.46a13.67,13.67,0,0,1-8.5-3.31c-1.29-1-2.54-2.09-3.84-3.09a6.7,6.7,0,0,0-6.35-1.11c-.38.12-.83.37-1.15.27a12.16,12.16,0,0,1-1.8-.91c.36-.56.59-1.43,1.1-1.62,2.89-1.1,5.88-1.35,8.62.36a41.54,41.54,0,0,1,4.9,3.65,10.81,10.81,0,0,0,9.72,2.67,2.34,2.34,0,0,1,2,.88C359.73,111.29,358.8,111.8,357.8,112Zm3.66-5.36c2.85,2.42,6,3.58,9.85,2.73a2.3,2.3,0,0,1,2,.94c.44.93-.39,1.5-1.35,1.66-1.13.2-2.27.34-3.4.5A12.86,12.86,0,0,1,361,109.8c-1.49-1.11-2.92-2.32-4.38-3.49a7,7,0,0,0-6.93-1.32c-.32.11-.73.32-1,.22-.61-.24-1.4-.52-1.65-1-.16-.3.42-1.3.88-1.48,2.95-1.15,6-1.41,8.78.33A40.36,40.36,0,0,1,361.46,106.62Z" transform="translate(-72.78 -36.81)"/><path class="cls-4" d="M235.15,95.05c.17.34,1.34,2.65,1.62,3.42L387,98.13c.22-.33,1-2.39,1.28-3.08Z" transform="translate(-72.78 -36.81)"/><path class="cls-4" d="M242.67,116.68a5.27,5.27,0,0,1,.83,3.48H379.93a5.2,5.2,0,0,1,1-3.48Z" transform="translate(-72.78 -36.81)"/><path class="cls-3" d="M216,717.62a5.32,5.32,0,0,1,1.19,3.47l1.63,1.82a4.58,4.58,0,0,1,3,3.18,62.24,62.24,0,0,1,7.58,8.84,17.75,17.75,0,0,0,12.3,1.28c1.86-.44,3.58-.31,4.08,1.78s-1.16,2.94-3,3.26c-2.08.37-4.2.58-6.3.85-.53,0-1.05-.07-1.57-.12a5.6,5.6,0,0,1,0,5.16h152.5a5.58,5.58,0,0,1,.54-5.2,25.74,25.74,0,0,1-13.39-6.09c-2.37-1.92-4.68-3.93-7.09-5.8A12.11,12.11,0,0,0,355.8,728c-.71.22-1.54.7-2.13.51a20.52,20.52,0,0,1-3.32-1.72c.66-1,1.08-2.69,2-3,5.35-2.07,10.85-2.53,15.93.68a77.21,77.21,0,0,1,9,6.88c4.11,3.57,8.58,5.56,13.72,5.5a4.16,4.16,0,0,1,1.26-1,4.58,4.58,0,0,1,1.77-2.15,5,5,0,0,1,1.05-2.2l-1-.85c-3.8-3.09-8-4.12-12.8-2.48-.6.2-1.35.6-1.82.41-1.14-.45-2.6-1-3.06-1.9-.29-.57.78-2.46,1.63-2.8,5.45-2.16,11-2.65,16.21.64,1.43.91,2.8,1.91,4.15,3a4.49,4.49,0,0,1,2.55-2.54,4.9,4.9,0,0,1,1.14-1.7c.24-.44.49-.87.76-1.3a17.6,17.6,0,0,1,3.7-4.21Zm53.18,23.52c-2.09.38-4.19.66-6.28,1a23.71,23.71,0,0,1-14.43-5.28c-2.67-2.06-5.22-4.27-7.84-6.39-3.72-3-7.85-4-12.51-2.41-.6.2-1.33.6-1.82.43a25.33,25.33,0,0,1-3.33-1.68c.63-1.06,1-2.72,1.92-3.08,5.35-2.1,10.84-2.52,15.93.63a60.58,60.58,0,0,1,8.31,6.28c5.44,4.85,11.41,7.42,18.94,5.6a4,4,0,0,1,3.43,1.69C272.35,739.64,271,740.81,269.2,741.14Zm24.55.19c-7,1.49-13.56.34-19.32-4-2.95-2.2-5.73-4.64-8.61-7A12.58,12.58,0,0,0,253.28,728c-.69.24-1.55.67-2.13.46-1.07-.37-2.6-1-2.8-1.8a3.3,3.3,0,0,1,1.54-2.87,86,86,0,0,1,8.92-2.29c2.92,1.3,6.51,2.52,9.69,4.4,2.79,1.65,5.14,4,7.64,6.11a18.22,18.22,0,0,0,16.61,4.19c1.82-.42,3.59-.43,4.13,1.67C297.48,740.28,295.62,740.93,293.75,741.33Zm26.54-.3a33.64,33.64,0,0,1-6.24,1.09c-6.49-.06-11.71-2.86-16.45-6.8-2.11-1.74-4.19-3.52-6.34-5.22a12.16,12.16,0,0,0-11.69-2.18c-.71.22-1.52.71-2.13.54a20.65,20.65,0,0,1-3.34-1.64c.61-1.06,1-2.73,1.89-3.09,5.33-2.1,10.83-2.57,15.92.59a66.48,66.48,0,0,1,8.55,6.48c5.39,4.76,11.31,7.17,18.7,5.45,1-.24,2.44,1.2,3.67,1.86C322,739.12,321.36,740.63,320.29,741Zm24.61.26c-1.87.35-3.78.53-5.67.78-6-.05-11-2.4-15.44-6q-2.6-2.07-5.07-4.28c-4.41-3.92-9.25-5.79-15.19-3.51-1.66.64-3.57.64-4.18-1.52s1-2.85,2.74-3.45c6.56-2.24,12.58-1.39,18,2.86,2.49,2,4.9,4,7.33,6a18.08,18.08,0,0,0,16.34,4.06c2-.45,3.82-.41,4.26,1.9S346.65,741,344.9,741.29Zm8.23-9.24c4.84,4.09,10.33,5.66,16.6,4.19,1.87-.43,3.59-.39,4.14,1.68.62,2.38-1.25,3.05-3.13,3.4s-3.78.52-5.68.77a23.18,23.18,0,0,1-13.9-4.91c-2.44-1.84-4.79-3.8-7.09-5.8-4.22-3.66-8.85-5.2-14.4-3.16-1.75.65-3.83.87-4.44-1.5s1.31-2.91,3.13-3.51c6.35-2.09,12.17-1.21,17.44,2.84C348.3,728,350.72,730,353.13,732.05Z" transform="translate(-72.78 -36.81)"/></svg>